<svg width="19" height="19" viewBox="0 0 19 19" fill="none" xmlns="http://www.w3.org/2000/svg">
<path fill-rule="evenodd" clip-rule="evenodd" d="M2.06259 2.53321C1.72943 2.53321 1.40991 2.66556 1.17433 2.90114C0.938746 3.13672 0.806396 3.45624 0.806396 3.78941V15.0952C0.806396 15.4284 0.938746 15.7479 1.17433 15.9835C1.40991 16.2191 1.72943 16.3514 2.06259 16.3514H13.3684C13.7015 16.3514 14.0211 16.2191 14.2566 15.9835C14.4922 15.7479 14.6246 15.4284 14.6246 15.0952V10.6985C14.6246 10.5319 14.5584 10.3722 14.4406 10.2544C14.3228 10.1366 14.1631 10.0704 13.9965 10.0704C13.8299 10.0704 13.6701 10.1366 13.5523 10.2544C13.4346 10.3722 13.3684 10.5319 13.3684 10.6985V15.0952H2.06259V3.78941H6.45929C6.62587 3.78941 6.78563 3.72323 6.90342 3.60544C7.02121 3.48765 7.08739 3.32789 7.08739 3.16131C7.08739 2.99472 7.02121 2.83496 6.90342 2.71717C6.78563 2.59938 6.62587 2.53321 6.45929 2.53321H2.06259ZM14.4412 2.71661C14.558 2.83371 14.6239 2.99215 14.6246 3.15754V6.9299C14.6246 7.09648 14.5584 7.25624 14.4406 7.37403C14.3228 7.49183 14.1631 7.558 13.9965 7.558C13.8299 7.558 13.6701 7.49183 13.5523 7.37403C13.4346 7.25624 13.3684 7.09648 13.3684 6.9299V4.67754L6.90398 11.1432C6.84559 11.2016 6.77626 11.2479 6.69996 11.2795C6.62366 11.3111 6.54188 11.3274 6.45929 11.3274C6.3767 11.3274 6.29492 11.3111 6.21862 11.2795C6.14232 11.2479 6.07299 11.2016 6.0146 11.1432C5.9562 11.0848 5.90987 11.0155 5.87827 10.9392C5.84666 10.8629 5.8304 10.7811 5.8304 10.6985C5.8304 10.6159 5.84666 10.5342 5.87827 10.4579C5.90987 10.3815 5.9562 10.3122 6.0146 10.2538L12.4802 3.78941H10.2279C10.0613 3.78941 9.90154 3.72323 9.78375 3.60544C9.66596 3.48765 9.59978 3.32789 9.59978 3.16131C9.59978 2.99472 9.66596 2.83496 9.78375 2.71717C9.90154 2.59938 10.0613 2.53321 10.2279 2.53321H13.9965C14.079 2.53299 14.1608 2.54908 14.2371 2.58056C14.3134 2.61203 14.3828 2.65827 14.4412 2.71661Z" fill="white"/>
</svg>
