<svg width="19" height="19" viewBox="0 0 19 19" fill="none" xmlns="http://www.w3.org/2000/svg">
<path fill-rule="evenodd" clip-rule="evenodd" d="M2.06259 2.53333C1.72943 2.53333 1.40991 2.66568 1.17433 2.90126C0.938746 3.13684 0.806396 3.45636 0.806396 3.78953V15.0953C0.806396 15.4285 0.938746 15.748 1.17433 15.9836C1.40991 16.2192 1.72943 16.3515 2.06259 16.3515H13.3684C13.7015 16.3515 14.0211 16.2192 14.2566 15.9836C14.4922 15.748 14.6246 15.4285 14.6246 15.0953V10.6986C14.6246 10.532 14.5584 10.3723 14.4406 10.2545C14.3228 10.1367 14.1631 10.0705 13.9965 10.0705C13.8299 10.0705 13.6701 10.1367 13.5523 10.2545C13.4346 10.3723 13.3684 10.532 13.3684 10.6986V15.0953H2.06259V3.78953H6.45929C6.62587 3.78953 6.78563 3.72335 6.90342 3.60556C7.02121 3.48777 7.08739 3.32801 7.08739 3.16143C7.08739 2.99484 7.02121 2.83508 6.90342 2.71729C6.78563 2.5995 6.62587 2.53333 6.45929 2.53333H2.06259ZM14.4412 2.71673C14.558 2.83383 14.6239 2.99227 14.6246 3.15766V6.93002C14.6246 7.0966 14.5584 7.25636 14.4406 7.37415C14.3228 7.49195 14.1631 7.55812 13.9965 7.55812C13.8299 7.55812 13.6701 7.49195 13.5523 7.37415C13.4346 7.25636 13.3684 7.0966 13.3684 6.93002V4.67766L6.90398 11.1433C6.84559 11.2017 6.77626 11.248 6.69996 11.2796C6.62366 11.3112 6.54188 11.3275 6.45929 11.3275C6.3767 11.3275 6.29492 11.3112 6.21862 11.2796C6.14232 11.248 6.07299 11.2017 6.0146 11.1433C5.9562 11.0849 5.90987 11.0156 5.87827 10.9393C5.84666 10.863 5.8304 10.7812 5.8304 10.6986C5.8304 10.616 5.84666 10.5343 5.87827 10.458C5.90987 10.3816 5.9562 10.3123 6.0146 10.2539L12.4802 3.78953H10.2279C10.0613 3.78953 9.90154 3.72335 9.78375 3.60556C9.66596 3.48777 9.59978 3.32801 9.59978 3.16143C9.59978 2.99484 9.66596 2.83508 9.78375 2.71729C9.90154 2.5995 10.0613 2.53333 10.2279 2.53333H13.9965C14.079 2.53311 14.1608 2.5492 14.2371 2.58068C14.3134 2.61215 14.3828 2.65839 14.4412 2.71673Z" fill="#333333"/>
</svg>
